<?xml version="1.0" encoding="UTF-8"?>
<svg width="172px" height="95px" viewBox="0 0 172 95" version="1.1" xmlns="http://www.w3.org/2000/svg" xmlns:xlink="http://www.w3.org/1999/xlink">
    <!-- Generator: Sketch 55.1 (78136) - https://sketchapp.com -->
    <title>qrgift/large/deco-white</title>
    <desc>Created with Sketch.</desc>
    <g id="qrgift/large/deco-white" stroke="none" stroke-width="1" fill="none" fill-rule="evenodd">
        <g id="deco-colour" fill="#FFFFFF">
            <circle id="Oval-Copy" cx="169" cy="49" r="3"></circle>
            <path d="M146,6 L146,2 C146,0.8954305 146.895431,2.02906125e-16 148,0 C149.104569,-2.02906125e-16 150,0.8954305 150,2 L150,6 L154,6 C155.104569,6 156,6.8954305 156,8 C156,9.1045695 155.104569,10 154,10 L150,10 L150,14 C150,15.1045695 149.104569,16 148,16 C146.895431,16 146,15.1045695 146,14 L146,10 L142,10 C140.895431,10 140,9.1045695 140,8 C140,6.8954305 140.895431,6 142,6 L146,6 Z" id="Combined-Shape"></path>
            <path d="M6,85 L6,81 C6,79.8954305 6.8954305,79 8,79 C9.1045695,79 10,79.8954305 10,81 L10,85 L14,85 C15.1045695,85 16,85.8954305 16,87 C16,88.1045695 15.1045695,89 14,89 L10,89 L10,93 C10,94.1045695 9.1045695,95 8,95 C6.8954305,95 6,94.1045695 6,93 L6,89 L2,89 C0.8954305,89 1.3527075e-16,88.1045695 0,87 C-1.3527075e-16,85.8954305 0.8954305,85 2,85 L6,85 Z" id="Combined-Shape-Copy"></path>
        </g>
    </g>
</svg>