<?xml version="1.0" encoding="UTF-8"?>
<svg width="113px" height="57px" viewBox="0 0 113 57" version="1.1" xmlns="http://www.w3.org/2000/svg" xmlns:xlink="http://www.w3.org/1999/xlink">
    <!-- Generator: Sketch 55.1 (78136) - https://sketchapp.com -->
    <title>pay/envelope-right</title>
    <desc>Created with Sketch.</desc>
    <g id="pay/envelope-right" stroke="none" stroke-width="1" fill="none" fill-rule="evenodd">
        <g id="Group-5-Copy" transform="translate(57.000000, 29.000000) scale(-1, 1) translate(-57.000000, -29.000000) translate(1.000000, 1.000000)">
            <rect id="Rectangle" stroke="#000000" stroke-width="1.1" fill="#D8D8D8" x="18.1186275" y="55.4519608" width="37.3313725" height="1"></rect>
            <path d="M102.647834,18.9511679 C102.660344,18.6748946 102.666667,18.3970092 102.666667,18.1176471 C102.666667,8.11154689 94.5551198,0 84.5490196,0 C74.5429194,0 66.4313725,8.11154689 66.4313725,18.1176471 C66.4313725,21.3108594 67.2574668,24.3111272 68.7076004,26.9163954" id="Shape" stroke="#000000" stroke-width="1.65" stroke-linecap="round"></path>
            <path d="M67.2365119,23.0930674 C66.9711455,23.0703937 66.7026102,23.0588235 66.4313725,23.0588235 C63.3467026,23.0588235 60.6115427,24.5552535 58.9122369,26.8617692" id="Path" stroke="#000000" stroke-width="1.65" stroke-linecap="round"></path>
            <path d="M60.6602733,30.0763706 C58.8442241,25.3306703 54.2470241,21.9607843 48.8627451,21.9607843 C43.7414239,21.9607843 39.3321802,25.0095505 37.3509621,29.3911349" id="Path" stroke="#000000" stroke-width="1.65" stroke-linecap="round"></path>
            <path d="M43.8742893,35.087586 C41.5946172,31.7999918 37.7938289,29.6470588 33.4901961,29.6470588 C26.5162475,29.6470588 20.8627451,35.3005612 20.8627451,42.2745098 C20.8627451,44.5556102 21.4675968,46.6954399 22.525668,48.5423668" id="Path" stroke="#000000" stroke-width="1.65" stroke-linecap="round"></path>
            <rect id="Rectangle" stroke="#000000" stroke-width="1.1" fill="#D8D8D8" x="8.23627451" y="48.8637255" width="21.9588235" height="1"></rect>
            <rect id="Rectangle" stroke="#000000" stroke-width="1.1" fill="#D8D8D8" x="0.55" y="48.8637255" width="3.29215686" height="1"></rect>
            <path d="M111.942136,34.8571942 C111.98045,34.4066173 112,33.9506897 112,33.4901961 C112,24.6969565 104.871671,17.5686275 96.0784314,17.5686275 C95.6985735,17.5686275 95.3218226,17.5819299 94.948619,17.6080944" id="Shape" stroke="#000000" stroke-width="1.65" stroke-linecap="round"></path>
            <path d="M92.6827965,11.2810709 C91.3832646,10.9241135 89.2190686,10.4218354 86.9161651,10.4522916 C84.5484189,10.4836053 82.3824055,10.9995786 80.4181249,12.0002116 C78.8204491,12.9479328 77.4243712,14.0698754 76.2298913,15.3660393 C74.5008141,17.2423099 73.6506187,18.115578 72.865049,20.0717138 C72.6240312,21.1536283 71.6810199,21.9607843 70.5544362,21.9607843 C69.3308519,21.9607843 68.3238126,21.0086496 68.1975109,19.7864793 C68.1923537,19.7719483 68.1878976,19.7575644 68.1841621,19.7433424 C67.9320983,18.7836621 68.106576,15.7936084 68.9700788,13.0873079 C69.8335816,10.3810074 71.8212776,7.82784569 73.1412145,6.5094309 C74.4611544,5.19101918 77.2328138,3.30011473 80.0261393,2.5385537 C82.8194649,1.77699267 88.1702418,2.47909964 89.1662874,2.78869744 C92.0279834,3.67818962 94.5516997,5.40668197 95.7777665,6.85885868 C95.7835226,6.8656763 95.7893802,6.87604613 95.795428,6.88970519 C96.3078668,7.38874728 96.627451,8.09459083 96.627451,8.8770896 C96.627451,10.382938 95.4439177,11.604905 93.9800242,11.6154683 C93.9479036,11.6221221 93.9266511,11.6254535 93.9183321,11.6254535 C93.904739,11.6254535 93.8805864,11.6211486 93.8464323,11.61306 C93.4260612,11.5948288 93.0308657,11.4766515 92.6827965,11.2810709 Z" id="Combined-Shape" fill="#E4E6E6"></path>
            <path d="M39.1462931,37.8997989 C38.2965991,37.6618273 36.8815479,37.3269753 35.3758033,37.3472794 C33.8276615,37.3681552 32.411422,37.7121374 31.1270847,38.379226 C30.0824505,39.0110402 29.1696303,39.7590019 28.3886242,40.6231112 C27.2580738,41.8739582 26.7021768,42.456137 26.1885351,43.7602275 C26.0309465,44.4815038 25.4143622,45.0196078 24.6777498,45.0196078 C23.8777139,45.0196078 23.2192651,44.3848514 23.1366832,43.5700712 C23.1333112,43.5603838 23.1303976,43.5507946 23.1279552,43.5413132 C22.9631442,42.9015264 23.0772258,40.9081572 23.6418238,39.1039569 C24.2064217,37.2997565 25.5060691,35.5976488 26.3691058,34.7187066 C27.2321424,33.8397644 29.0443812,32.5791615 30.8707864,32.0714541 C32.6971916,31.5637467 36.1957765,32.0318181 36.8470371,32.2382166 C38.718146,32.8312114 40.3682682,33.9835396 41.1699272,34.9516574 C41.1736908,34.9562025 41.1775208,34.9631157 41.1814752,34.9722218 C41.5165313,35.3049165 41.7254902,35.7754789 41.7254902,36.2971447 C41.7254902,37.3010437 40.9516415,38.1156883 39.9944803,38.1227305 C39.9734785,38.1271664 39.9595826,38.1293873 39.9541432,38.1293873 C39.9452554,38.1293873 39.9294634,38.1265174 39.9071318,38.121125 C39.6322738,38.1089708 39.3738767,38.030186 39.1462931,37.8997989 Z" id="Combined-Shape-Copy-6" fill="#E4E6E6"></path>
            <path d="M80.0531562,42.5 C80.0531562,42.2033015 80.0789988,41.9126389 80.1285559,41.6301403 C80.5402353,39.2833756 82.5884309,37.5 85.0531562,37.5 C86.7734356,37.5 88.2908035,38.3687679 89.1904523,39.6914964 L89.1904523,39.6914964 M87.2124921,37.8088541 C87.7346677,35.9016241 89.4802285,34.5 91.5531562,34.5 C93.8024895,34.5 95.6663675,36.1503305 96,38.3062011 L96,38.3062011" id="Shape" stroke="#000000" stroke-width="1.5" stroke-linecap="round" transform="translate(88.026578, 38.500000) scale(-1, 1) translate(-88.026578, -38.500000) "></path>
        </g>
    </g>
</svg>