<?xml version="1.0" encoding="UTF-8"?>
<svg width="103px" height="53px" viewBox="0 0 103 53" version="1.1" xmlns="http://www.w3.org/2000/svg" xmlns:xlink="http://www.w3.org/1999/xlink">
    <!-- Generator: Sketch 55.1 (78136) - https://sketchapp.com -->
    <title>pay/envelope-left</title>
    <desc>Created with Sketch.</desc>
    <g id="pay/envelope-left" stroke="none" stroke-width="1" fill="none" fill-rule="evenodd">
        <g id="Group-5" transform="translate(0.000000, 1.000000)">
            <rect id="Rectangle" stroke="#000000" fill="#D8D8D8" x="16.5" y="50.5" width="34" height="1"></rect>
            <path d="M93.4828484,17.2590993 C93.4942417,17.0074933 93.5,16.7544191 93.5,16.5 C93.5,7.38730163 86.1126984,0 77,0 C67.8873016,0 60.5,7.38730163 60.5,16.5 C60.5,19.4081041 61.2523358,22.1404908 62.5729933,24.5131458" id="Shape" stroke="#000000" stroke-width="1.5" stroke-linecap="round"></path>
            <path d="M61.2332519,21.0311863 C60.991579,21.0105371 60.74702,21 60.5,21 C57.690747,21 55.1997978,22.3628202 53.6522158,24.463397" id="Path" stroke="#000000" stroke-width="1.5" stroke-linecap="round"></path>
            <path d="M55.2441775,27.3909804 C53.5902755,23.0690033 49.4035398,20 44.5,20 C39.8359396,20 35.8203784,22.7765549 34.0160547,26.7669264" id="Path" stroke="#000000" stroke-width="1.5" stroke-linecap="round"></path>
            <path d="M39.9569421,31.9547658 C37.8808121,28.9607068 34.4193799,27 30.5,27 C24.1487254,27 19,32.1487254 19,38.5 C19,40.5774307 19.5508471,42.5262042 20.5144476,44.2082269" id="Path" stroke="#000000" stroke-width="1.5" stroke-linecap="round"></path>
            <rect id="Rectangle" stroke="#000000" fill="#D8D8D8" x="7.5" y="44.5" width="20" height="1"></rect>
            <rect id="Rectangle" stroke="#000000" fill="#D8D8D8" x="0.5" y="44.5" width="3" height="1"></rect>
            <path d="M101.947302,31.7449447 C101.982196,31.3345979 102,30.9193781 102,30.5 C102,22.4918711 95.5081289,16 87.5,16 C87.154058,16 86.8109456,16.0121147 86.4710638,16.0359431" id="Shape" stroke="#000000" stroke-width="1.5" stroke-linecap="round"></path>
            <path d="M84.4075468,10.2738324 C83.2240445,9.94874626 81.2530803,9.49131441 79.1557932,9.51905127 C76.9994529,9.54756912 75.0268336,10.0174734 73.2379351,10.9287641 C71.782909,11.7918674 70.5114809,12.8136365 69.423651,13.9940715 C67.8489557,15.7028179 67.0746706,16.4981157 66.3592411,18.2795965 C66.1397427,19.2649115 65.2809288,20 64.254933,20 C63.1405973,20 62.2234722,19.1328774 62.1084474,18.0198293 C62.1037507,18.0065958 62.0996924,17.9934962 62.0962905,17.980544 C61.8667324,17.1065494 62.0256317,14.3834648 62.812036,11.9187982 C63.5984404,9.4541317 65.4086635,7.1289309 66.6107285,5.92821136 C67.8128371,4.72753532 70.3370268,3.00546163 72.8809483,2.31189712 C75.4248698,1.61833261 80.2978988,2.25775146 81.2050118,2.5397066 C83.8111992,3.34977983 86.1095836,4.92394251 87.2261802,6.24646059 C87.2314223,6.25266949 87.236757,6.26211344 87.2422648,6.27455294 C87.7089501,6.7290377 88,7.3718595 88,8.08449232 C88,9.45588999 86.9221393,10.5687528 85.5889506,10.5783729 C85.559698,10.5844327 85.5403429,10.5874666 85.5327667,10.5874666 C85.5203873,10.5874666 85.4983912,10.583546 85.4672866,10.5761796 C85.0844486,10.5595762 84.7245384,10.4519505 84.4075468,10.2738324 Z" id="Combined-Shape" fill="#E4E6E6"></path>
            <path d="M35.6510883,34.5158883 C34.8772599,34.2991642 33.5885525,33.9942096 32.2172494,34.0127008 C30.8073346,34.0317127 29.517545,34.3449823 28.3478807,34.9525094 C27.3965174,35.5279116 26.5651991,36.209091 25.8539257,36.9960477 C24.8243172,38.1352119 24.3180538,38.6654105 23.850273,39.8530643 C23.7067548,40.509941 23.1452227,41 22.4743792,41 C21.7457751,41 21.1461164,40.4219182 21.0709079,39.6798862 C21.067837,39.6710639 21.0651835,39.6623308 21.0629592,39.653696 C20.9128635,39.071033 21.0167592,37.2556432 21.5309466,35.6125322 C22.0451341,33.9694211 23.2287415,32.4192873 24.0147213,31.6188221 C24.8007012,30.8183569 26.4511329,29.6703078 28.1144662,29.2079314 C29.7777995,28.7455551 32.9640107,29.1718343 33.5571231,29.3598044 C35.2611687,29.8998532 36.7639585,30.949295 37.4940409,31.8309737 C37.4974684,31.835113 37.5009565,31.841409 37.5045578,31.849702 C37.8096981,32.1526918 38,32.5812397 38,33.0563282 C38,33.9705933 37.2952449,34.7125019 36.4235446,34.7189153 C36.4044179,34.7229551 36.3917627,34.7249777 36.386809,34.7249777 C36.3787148,34.7249777 36.3643327,34.722364 36.3439951,34.7174531 C36.0936779,34.7063842 35.858352,34.6346337 35.6510883,34.5158883 Z" id="Combined-Shape-Copy-6" fill="#E4E6E6"></path>
        </g>
    </g>
</svg>