<?xml version="1.0" encoding="UTF-8"?>
<svg width="105px" height="105px" viewBox="0 0 105 105" version="1.1" xmlns="http://www.w3.org/2000/svg" xmlns:xlink="http://www.w3.org/1999/xlink">
    <!-- Generator: Sketch 55.1 (78136) - https://sketchapp.com -->
    <title>status/success</title>
    <desc>Created with Sketch.</desc>
    <g id="status/success" stroke="none" stroke-width="1" fill="none" fill-rule="evenodd">
        <circle id="Oval" stroke="#16CA99" stroke-width="3" cx="52.5" cy="52.5" r="50.5"></circle>
        <path d="M45.8518655,63.3270826 L36.3073601,52.1000414 C36.3037749,52.0958242 36.3002168,52.0915839 36.2966861,52.0873209 C35.8420646,51.5383983 35.9185107,50.7248651 36.4674332,50.2702435 C37.025548,49.8080089 37.8515509,49.8802687 38.3209285,50.4323897 L47.1055485,60.7655904 L67.7578684,40.3813628 C68.2730727,39.8728465 69.1013133,39.8728465 69.6165176,40.3813628 C70.1231068,40.8813758 70.1284378,41.6973881 69.6284248,42.2039773 C69.6244817,42.2079722 69.6205125,42.2119414 69.6165176,42.2158845 L47.9322769,63.6186372 C47.4170727,64.1271535 46.588832,64.1271535 46.0736278,63.6186372 C45.9840139,63.5301867 45.9100857,63.4318478 45.8518655,63.3270826 Z" id="Combined-Shape" fill="#52D4AC"></path>
    </g>
</svg>