<?xml version="1.0" encoding="UTF-8"?>
<svg width="375px" height="205px" viewBox="0 0 375 205" version="1.1" xmlns="http://www.w3.org/2000/svg" xmlns:xlink="http://www.w3.org/1999/xlink">
    <!-- Generator: Sketch 55.1 (78136) - https://sketchapp.com -->
    <title>background/dark</title>
    <desc>Created with Sketch.</desc>
    <g id="background/dark" stroke="none" stroke-width="1" fill="none" fill-rule="evenodd">
        <path d="M412.709025,185.483546 L340.495477,125.376486 C340.495477,125.376486 330.61495,116.08466 319.571459,116.08466 C308.674156,116.08466 298.79363,125.521628 298.79363,125.521628 L227.017244,186.5 L226.726736,186.209718 L287.025738,113.906611 C287.025738,113.906611 296.470036,104.179361 296.470036,93.1449077 C296.470036,82.1104549 286.880484,72.5283459 286.880484,72.5283459 L226,0.661595037 L226.145254,0.37131295 L298.504056,60.4783725 C298.504056,60.4783725 308.384583,69.9153404 319.428074,69.9153404 C330.471565,69.9153404 340.205903,60.1880904 340.205903,60.1880904 L411.837503,-0.5 L412.12801,-0.354858957 L351.974262,72.0929228 C351.974262,72.0929228 342.529964,81.8201728 342.529964,93.0007 C342.529964,104.034686 352.119516,113.762403 352.119516,113.762403 L413,185.484479 L412.709025,185.483546 Z" id="Path_1841" fill="#FC7588" fill-rule="nonzero"></path>
        <g id="background/qrgift" transform="translate(0.000000, 68.000000)">
            <g id="Group-2">
                <path d="M12.833999,99.1940785 L68.5038759,115.828935" id="Line" stroke="#FC7588" stroke-width="3" stroke-linecap="square" transform="translate(40.668937, 107.511507) rotate(13.000000) translate(-40.668937, -107.511507) "></path>
                <path d="M65.7450468,111.19 L120.041478,127.88586" id="Line-Copy" stroke="#FC7588" stroke-width="3" stroke-linecap="square" transform="translate(92.893262, 119.537930) scale(-1, 1) rotate(-13.000000) translate(-92.893262, -119.537930) "></path>
                <path d="M40.2036357,14.8830178 L38.3558357,14.4574991 C35.9358441,13.9002139 33.5218596,15.4086367 32.9618867,17.8280077 L3.09841784,146.853554 C3.09785473,146.855989 3.09785473,146.855989 3.09729342,146.858424 C2.53957023,149.280318 4.05077889,151.695775 6.47267243,152.253498 L103.296807,174.550541 C105.716798,175.107826 108.130783,173.599403 108.690755,171.180032 L138.554224,42.1544861 C138.554787,42.1520511 138.554787,42.1520511 138.555349,42.1496157 C139.113072,39.7277221 137.601863,37.3122655 135.17997,36.7545423 L133.640742,36.4000829 L114.568338,117.67792 L64.9939715,122.409227 L21.6399415,96.7958446 L40.2036357,14.8830178 Z" id="Combined-Shape" stroke="#FC7588" stroke-width="3"></path>
                <polygon id="Rectangle" transform="translate(76.463330, 70.149243) rotate(13.000000) translate(-76.463330, -70.149243) " points="27.7772844 10.4573513 125.215785 10.4032968 125.149375 129.841134 27.7108745 129.895189"></polygon>
                <polygon id="Rectangle" fill="#FC7588" transform="translate(84.184339, 76.915329) rotate(13.000000) translate(-84.184339, -76.915329) " points="79.3151163 72.0571895 89.0589664 72.051784 89.053561 81.7734684 79.3097109 81.7788739"></polygon>
                <polygon id="Rectangle" fill="#FC7588" transform="translate(61.440032, 42.461889) rotate(13.000000) translate(-61.440032, -42.461889) " points="57.2664128 38.2977694 65.6182843 38.2931362 65.613651 46.6260085 57.2617795 46.6306418"></polygon>
                <polygon id="Rectangle-Copy-24" fill="#FC7588" transform="translate(53.714660, 82.012516) rotate(13.000000) translate(-53.714660, -82.012516) " points="49.5410413 77.8483965 57.8929128 77.8437633 57.8882795 86.1766356 49.536408 86.1812689"></polygon>
                <polygon id="Rectangle-Copy-23" fill="#FC7588" transform="translate(102.134311, 51.833128) rotate(13.000000) translate(-102.134311, -51.833128) " points="97.9606919 47.6690084 106.312563 47.6643752 106.30793 55.9972475 97.9560587 56.0018808"></polygon>
                <polygon id="Rectangle-Copy-19" fill="#FC7588" transform="translate(91.695988, 90.759006) rotate(13.000000) translate(-91.695988, -90.759006) " points="86.1311621 85.2068464 97.2669908 85.2006687 97.2608131 96.3111652 86.1249845 96.3173429"></polygon>
                <polygon id="Rectangle-Copy-21" fill="#FC7588" transform="translate(79.173664, 98.564020) rotate(13.000000) translate(-79.173664, -98.564020) " points="74.3044419 93.7058805 84.048292 93.700475 84.0428865 103.422159 74.2990364 103.427565"></polygon>
                <polygon id="Rectangle-Copy-22" fill="#FC7588" transform="translate(100.877280, 103.562014) rotate(13.000000) translate(-100.877280, -103.562014) " points="96.0080574 98.7038746 105.751908 98.6984692 105.746502 108.420154 96.002652 108.425559"></polygon>
                <polygon id="Rectangle-Copy-20" fill="#FC7588" transform="translate(104.531478, 81.600948) rotate(13.000000) translate(-104.531478, -81.600948) " points="99.6622559 76.742809 109.406106 76.7374035 109.400701 86.4590879 99.6568505 86.4644934"></polygon>
                <rect id="Rectangle" fill="#FFFFFF" x="0" y="137" width="142" height="41"></rect>
                <path d="M32.8216528,97.3125817 L32.8753153,0.0957375987" id="Line-2" stroke="#FC7588" stroke-width="3" stroke-linecap="square" transform="translate(32.848484, 48.704160) rotate(13.000000) translate(-32.848484, -48.704160) "></path>
                <polyline id="Line-2-Copy" stroke="#FC7588" stroke-width="3" stroke-linecap="square" transform="translate(125.171701, 70.298678) rotate(13.000000) translate(-125.171701, -70.298678) " points="125.14499 118.9071 125.187407 41.7173016 125.198412 21.6902558"></polyline>
                <path d="M42.6022456,11.9946198 L137.256789,11.9421513" id="Line-3" stroke="#FC7588" stroke-width="3" stroke-linecap="square" transform="translate(89.929517, 11.968386) rotate(13.000000) translate(-89.929517, -11.968386) "></path>
                <path d="M48.274869,27.9779878 L48.2593323,55.9206633 L76.2748379,55.9051216 L76.2903746,27.962446 L48.274869,27.9779878 Z" id="Rectangle" stroke="#FC7588" stroke-width="4" transform="translate(62.274853, 41.941555) rotate(13.000000) translate(-62.274853, -41.941555) "></path>
                <path d="M87.6126722,37.0368522 L87.5971355,64.9795277 L115.612641,64.9639859 L115.628178,37.0213104 L87.6126722,37.0368522 Z" id="Rectangle-Copy-17" stroke="#FC7588" stroke-width="4" transform="translate(101.612657, 51.000419) rotate(13.000000) translate(-101.612657, -51.000419) "></path>
                <path d="M39.1930216,67.2162403 L39.1774848,95.1589158 L67.1929904,95.1433741 L67.2085271,67.2006985 L39.1930216,67.2162403 Z" id="Rectangle-Copy-18" stroke="#FC7588" stroke-width="4" transform="translate(53.193006, 81.179807) rotate(13.000000) translate(-53.193006, -81.179807) "></path>
            </g>
        </g>
    </g>
</svg>