<?xml version="1.0" encoding="UTF-8"?>
<svg width="107px" height="56px" viewBox="0 0 107 56" version="1.1" xmlns="http://www.w3.org/2000/svg" xmlns:xlink="http://www.w3.org/1999/xlink">
    <!-- Generator: Sketch 55.1 (78136) - https://sketchapp.com -->
    <title>pay/flying-envel</title>
    <desc>Created with Sketch.</desc>
    <g id="pay/flying-envel" stroke="none" stroke-width="1" fill="none" fill-rule="evenodd">
        <g id="Group-4" transform="translate(1.000000, 1.000000)">
            <g id="Group-3">
                <path d="M21.4177879,42.7061397 L22.638237,49.040986 C23.26511,52.2948639 26.4110851,54.4244651 29.6649616,53.7975847 C29.9179852,53.7488381 30.1676058,53.6838426 30.4122728,53.6030019 C50.0225341,47.1235557 62.8405914,42.9463061 68.8664446,41.071253 C75.5326713,38.9969362 83.0497857,36.8887629 91.4177879,34.7467333" id="Path-3" stroke="#000000" stroke-width="1.5" fill="#FFFFFF"></path>
                <path d="M15.8178081,24.9092002 C14.7867696,21.8541518 14.446653,20.0886716 14.7974582,19.6127595 C15.0559259,18.8834843 19.7684323,14.8996397 28.9349775,7.6612258 L104.482738,32.9920294" id="Path-4" stroke="#000000" stroke-width="1.5" fill="#FFFFFF"></path>
                <path d="M14.7974582,19.6127595 L102.5,32.9920294" id="Path-5" stroke="#000000" stroke-width="1.5" fill="#D8D8D8"></path>
                <g id="Group-2" transform="translate(22.417788, 0.000000)">
                    <rect id="Rectangle" fill="#CE0001" x="1" y="1" width="59" height="33" rx="4"></rect>
                    <path d="M61.241403,1.27306871 L61.246946,1.28288664 L0.636638205,33.794369 L0.634041567,33.7897698 L1.72112863,33.2065323 C0.821124233,32.4730654 0.24633105,31.3557664 0.24633105,30.1042172 L0.24633105,5.37975654 C0.24633105,3.17061754 2.03719205,1.37975654 4.24633105,1.37975654 L56.9051969,1.37975654 C57.8515386,1.37975654 58.7211239,1.70839 59.4060547,2.2577589 L61.241403,1.27306871 Z" id="Combined-Shape" fill="#E62433"></path>
                    <rect id="Rectangle-Copy-17" stroke="#000000" stroke-width="2" x="1" y="1" width="59" height="32" rx="4"></rect>
                    <circle id="Oval" fill="#FFFFFF" cx="11" cy="17" r="2"></circle>
                    <circle id="Oval" fill="#FFFFFF" cx="52" cy="17" r="2"></circle>
                    <circle id="Oval" stroke="#CE0001" fill="#FFFFFF" cx="31.5" cy="17.5" r="11.5"></circle>
                </g>
                <g id="$" transform="translate(51.417788, 10.000000)" stroke="#CE0001">
                    <rect id="Rectangle" x="2.25" y="0.5" width="1" height="2" rx="0.5"></rect>
                    <rect id="Rectangle-Copy-23" x="2.25" y="11.5" width="1" height="2" rx="0.5"></rect>
                    <path d="M2.64421945,7 C1.45999975,7 0.5,6.1045695 0.5,5 C0.5,3.8954305 1.45999975,3 2.64421945,3 C3.43675694,3 4.12886769,3.40105778 4.5,3.99745586 L4.5,3.99745586 M2.35578055,7 C3.54000025,7 4.5,7.8954305 4.5,9 C4.5,10.1045695 3.54000025,11 2.35578055,11 C1.56324306,11 0.871132305,10.5989422 0.5,10.0025441 L0.5,10.0025441" id="Shape" stroke-width="2" stroke-linecap="round"></path>
                </g>
                <path d="M11.6685564,24.1718536 C9.4911554,25.5799897 -1.564608,42.7453376 0.187360543,44.4718952 C1.52407825,45.1364295 38.7553708,40.9613356 39.6680373,40.9613356 C40.5554565,40.9613356 102.671452,34.357712 105.097476,33.5537447 C106.319572,32.9920294 98.3929416,31.6899149 97.6786172,31.6899149 C96.8258974,31.6899149 13.8454456,24.6010736 11.6685564,24.1718536 Z" id="Path-2" stroke="#000000" stroke-width="1.5" fill="#FFFFFF"></path>
            </g>
            <path d="M7.59393673,35.2566432 L4.28623519,40.5371513 C4.13964478,40.7711724 4.21052133,41.079719 4.44454241,41.2263094 C4.53901098,41.2854843 4.65054483,41.3113939 4.76142485,41.2999219 L38.0031192,37.8606226 C38.1404572,37.8464131 38.2402727,37.7235596 38.2260632,37.5862215 C38.2136407,37.4661551 38.1172036,37.3721113 37.9968629,37.3627095 L8.05661386,35.0235876 C7.87102929,35.0090886 7.69275465,35.0988875 7.59393673,35.2566432 Z" id="Path-7" fill="#DDDBDD"></path>
        </g>
    </g>
</svg>